<svg width="279" height="297" viewBox="0 0 279 297" fill="none" xmlns="http://www.w3.org/2000/svg">
<path d="M79.2845 324.163C79.2845 360.163 28.0754 389.163 2.47083 399.163H320.479V125.163C321.845 68.8293 323.757 -31.0373 320.479 20.1627C316.383 84.1627 248.274 127.163 164.804 153.163C81.3328 179.163 79.2845 279.163 79.2845 324.163Z" stroke="#7C589F" stroke-width="10"/>
<path d="M120.252 344.163C120.252 380.163 69.0427 409.163 43.4381 419.163H361.447V145.163C362.812 88.8293 364.724 -11.0373 361.447 40.1627C357.35 104.163 289.242 147.163 205.771 173.163C122.3 199.163 120.252 299.163 120.252 344.163Z" stroke="#7C589F" stroke-width="10"/>
<path d="M161.219 374.163C161.219 410.163 110.01 439.163 84.4054 449.163H402.414V175.163C403.779 118.829 405.691 18.9627 402.414 70.1627C398.317 134.163 330.209 177.163 246.738 203.163C163.267 229.163 161.219 329.163 161.219 374.163Z" stroke="#7C589F" stroke-width="10"/>
</svg>
