<svg width="278" height="343" viewBox="0 0 278 343" fill="none" xmlns="http://www.w3.org/2000/svg">
<path d="M117.004 -30.9996C117.004 -66.9996 168.214 -95.9996 193.818 -106L-124.19 -106L-124.19 168C-125.556 224.334 -127.468 324.2 -124.19 273C-120.094 209 -51.9855 166 31.4853 140C114.956 114 117.004 14.0004 117.004 -30.9996Z" stroke="#7C589F" stroke-width="10"/>
<path d="M157.972 -10.9996C157.972 -46.9996 209.181 -75.9996 234.785 -85.9996L-83.2231 -85.9996L-83.2231 188C-84.5887 244.334 -86.5005 344.2 -83.2231 293C-79.1264 229 -11.0183 186 72.4526 160C155.923 134 157.972 34.0004 157.972 -10.9996Z" stroke="#7C589F" stroke-width="10"/>
<path d="M198.939 19.0004C198.939 -16.9996 250.148 -45.9996 275.753 -55.9996L-42.2558 -55.9996L-42.2558 218C-43.6214 274.334 -45.5332 374.2 -42.2558 323C-38.1591 259 29.949 216 113.42 190C196.891 164 198.939 64.0004 198.939 19.0004Z" stroke="#7C589F" stroke-width="10"/>
</svg>
