<svg width="360" height="708" viewBox="0 0 360 708" fill="none" xmlns="http://www.w3.org/2000/svg">
<rect width="360" height="708" fill="#333333"/>
<path d="M266 50C239.6 10.8 191.333 -13 170.5 -20H494.5C496.667 45.6667 499.7 184.9 494.5 216.5C489.3 248.1 464.667 229.667 453 216.5C439.667 189 407.4 127.9 385 103.5C357 73 299 99 266 50Z" stroke="#121212" stroke-width="2" stroke-linecap="round" stroke-linejoin="round"/>
<path d="M315.5 20C289.1 -19.2 240.833 -43 220 -50H544C546.167 15.6667 549.2 154.9 544 186.5C538.8 218.1 514.167 199.667 502.5 186.5C489.167 159 456.9 97.9 434.5 73.5C406.5 43 348.5 69 315.5 20Z" stroke="#121212" stroke-width="2" stroke-linecap="round" stroke-linejoin="round"/>
<path d="M-69.5 566.836C-87.5 570.436 -110.333 591.003 -119.5 600.836V787.336H201C202.667 780.336 205 760.436 201 736.836C196 707.336 94 654.336 58.5 652.836C23 651.336 15 625.336 0 600.836C-15 576.336 -47 562.336 -69.5 566.836Z" stroke="#121212" stroke-width="2" stroke-linecap="round" stroke-linejoin="round"/>
<path d="M-81.5 601.836C-99.5 605.436 -122.333 626.003 -131.5 635.836V822.336H189C190.667 815.336 193 795.436 189 771.836C184 742.336 82 689.336 46.5 687.836C11 686.336 3 660.336 -12 635.836C-27 611.336 -59 597.336 -81.5 601.836Z" stroke="#121212" stroke-width="2" stroke-linecap="round" stroke-linejoin="round"/>
</svg>
