<svg width="205" height="143" viewBox="0 0 205 143" fill="none" xmlns="http://www.w3.org/2000/svg">
<path d="M-69.5 1.83594C-87.5 5.43594 -110.333 26.0026 -119.5 35.8359V222.336H201C202.667 215.336 205 195.436 201 171.836C196 142.336 94 89.3359 58.5 87.8359C23 86.3359 15 60.3359 0 35.8359C-15 11.3359 -47 -2.66406 -69.5 1.83594Z" stroke="#121212" stroke-width="2" stroke-linecap="round" stroke-linejoin="round"/>
<path d="M-81.5 36.8359C-99.5 40.4359 -122.333 61.0026 -131.5 70.8359V257.336H189C190.667 250.336 193 230.436 189 206.836C184 177.336 82 124.336 46.5 122.836C11 121.336 3 95.3359 -12 70.8359C-27 46.3359 -59 32.3359 -81.5 36.8359Z" stroke="#121212" stroke-width="2" stroke-linecap="round" stroke-linejoin="round"/>
</svg>
