<svg width="191" height="235" viewBox="0 0 191 235" fill="none" xmlns="http://www.w3.org/2000/svg">
<path d="M97 50C70.6 10.8 22.3333 -13 1.5 -20H325.5C327.667 45.6667 330.7 184.9 325.5 216.5C320.3 248.1 295.667 229.667 284 216.5C270.667 189 238.4 127.9 216 103.5C188 73 130 99 97 50Z" stroke="#121212" stroke-width="2" stroke-linecap="round" stroke-linejoin="round"/>
<path d="M146.5 20C120.1 -19.2 71.8333 -43 51 -50H375C377.167 15.6667 380.2 154.9 375 186.5C369.8 218.1 345.167 199.667 333.5 186.5C320.167 159 287.9 97.9 265.5 73.5C237.5 43 179.5 69 146.5 20Z" stroke="#121212" stroke-width="2" stroke-linecap="round" stroke-linejoin="round"/>
</svg>
