<svg width="40" height="40" viewBox="0 0 40 40" fill="none" xmlns="http://www.w3.org/2000/svg">
<rect width="40" height="40" rx="2" fill="#F37A51"/>
<path d="M28.8267 15.4737C28.8408 15.6711 28.8408 15.8686 28.8408 16.066C28.8408 22.0868 24.2582 29.0243 15.8825 29.0243C13.3021 29.0243 10.905 28.2769 8.88867 26.9797C9.2553 27.022 9.60777 27.0361 9.9885 27.0361C12.1176 27.0361 14.0776 26.317 15.6428 25.0903C13.6405 25.0479 11.9626 23.7366 11.3844 21.9317C11.6665 21.974 11.9484 22.0022 12.2446 22.0022C12.6535 22.0022 13.0624 21.9458 13.4431 21.8471C11.3563 21.4241 9.79106 19.5911 9.79106 17.3773V17.3209C10.3974 17.6593 11.1024 17.8708 11.8497 17.899C10.623 17.0812 9.81927 15.6852 9.81927 14.106C9.81927 13.26 10.0448 12.4844 10.4397 11.8076C12.6817 14.5713 16.0517 16.3761 19.8306 16.5736C19.7601 16.2351 19.7178 15.8827 19.7178 15.5302C19.7178 13.0202 21.7482 10.9757 24.2722 10.9757C25.5835 10.9757 26.768 11.5256 27.5999 12.414C28.6292 12.2166 29.6162 11.8358 30.4905 11.3141C30.152 12.3717 29.4329 13.26 28.4882 13.824C29.4048 13.7253 30.2931 13.4715 31.1109 13.119C30.4906 14.0214 29.715 14.8251 28.8267 15.4737V15.4737Z" fill="white"/>
</svg>
