<svg width="39" height="40" viewBox="0 0 39 40" fill="none" xmlns="http://www.w3.org/2000/svg">
<path d="M14.1723 8.24023H9.73068C9.54927 8.24023 9.40216 8.38734 9.40216 8.56875V12.0506C9.40216 12.232 9.54927 12.3791 9.73068 12.3791H14.1723C14.3537 12.3791 14.5008 12.232 14.5008 12.0506V8.56875C14.5009 8.38734 14.3538 8.24023 14.1723 8.24023Z" fill="#F37A51"/>
<path d="M23.7195 34.3754H7.9687C7.76745 34.3754 7.60425 34.2122 7.60425 34.0109V10.9738C7.60425 10.7726 7.76745 10.6094 7.9687 10.6094H23.7195C23.9207 10.6094 24.0839 10.7726 24.0839 10.9738V34.0109C24.0839 34.2123 23.9208 34.3754 23.7195 34.3754Z" fill="#333333"/>
<path d="M21.3649 25.2252H9.65367C9.59765 25.2252 9.55219 25.1798 9.55219 25.1237V23.3476C9.55219 23.2916 9.59758 23.2461 9.65367 23.2461H21.365C21.421 23.2461 21.4665 23.2915 21.4665 23.3476V25.1237C21.4664 25.1798 21.4209 25.2252 21.3649 25.2252Z" fill="#C7C7C7"/>
<path d="M21.3649 20.4146H9.65367C9.59765 20.4146 9.55219 20.3692 9.55219 20.3131V18.537C9.55219 18.481 9.59758 18.4355 9.65367 18.4355H21.365C21.421 18.4355 21.4665 18.4809 21.4665 18.537V20.3131C21.4664 20.3692 21.4209 20.4146 21.3649 20.4146Z" fill="#C7C7C7"/>
<path d="M21.3649 15.604H9.65367C9.59765 15.604 9.55219 15.5586 9.55219 15.5025V13.7265C9.55219 13.6705 9.59758 13.625 9.65367 13.625H21.365C21.421 13.625 21.4665 13.6704 21.4665 13.7265V15.5026C21.4664 15.5586 21.4209 15.604 21.3649 15.604Z" fill="#C7C7C7"/>
<path d="M21.3649 30.0357H9.65367C9.59765 30.0357 9.55219 29.9903 9.55219 29.9342V28.1581C9.55219 28.1021 9.59758 28.0566 9.65367 28.0566H21.365C21.421 28.0566 21.4665 28.102 21.4665 28.1581V29.9342C21.4664 29.9902 21.4209 30.0357 21.3649 30.0357Z" fill="#61AFF6"/>
<path d="M32.617 0.530273H16.885V34.3748H32.617V0.530273Z" fill="url(#paint0_linear)"/>
<path d="M33.3232 0H15.9984C15.8966 0 15.8142 0.0824218 15.8142 0.184141V1.69242C15.8142 1.79414 15.8966 1.87656 15.9984 1.87656H33.3232C33.4249 1.87656 33.5073 1.79414 33.5073 1.69242V0.184141C33.5073 0.0824218 33.4249 0 33.3232 0Z" fill="#7C589F"/>
<path d="M21.3097 7.72305H18.9972C18.9107 7.72305 18.8405 7.65289 18.8405 7.56641V4.79141C18.8405 4.70492 18.9107 4.63477 18.9972 4.63477H21.3097C21.3962 4.63477 21.4664 4.70492 21.4664 4.79141V7.56641C21.4664 7.65289 21.3962 7.72305 21.3097 7.72305Z" fill="#7C589F"/>
<path d="M25.9078 7.72305H23.5952C23.5088 7.72305 23.4386 7.65289 23.4386 7.56641V4.79141C23.4386 4.70492 23.5088 4.63477 23.5952 4.63477H25.9078C25.9943 4.63477 26.0645 4.70492 26.0645 4.79141V7.56641C26.0645 7.65289 25.9943 7.72305 25.9078 7.72305Z" fill="#7C589F"/>
<path d="M30.5058 7.72305H28.1933C28.1068 7.72305 28.0366 7.65289 28.0366 7.56641V4.79141C28.0366 4.70492 28.1068 4.63477 28.1933 4.63477H30.5058C30.5923 4.63477 30.6625 4.70492 30.6625 4.79141V7.56641C30.6625 7.65289 30.5923 7.72305 30.5058 7.72305Z" fill="#7C589F"/>
<path d="M21.3097 14.6146H18.9972C18.9107 14.6146 18.8405 14.5445 18.8405 14.458V11.683C18.8405 11.5965 18.9107 11.5264 18.9972 11.5264H21.3097C21.3962 11.5264 21.4664 11.5965 21.4664 11.683V14.458C21.4664 14.5445 21.3962 14.6146 21.3097 14.6146Z" fill="#7C589F"/>
<path d="M25.9078 14.6146H23.5952C23.5088 14.6146 23.4386 14.5445 23.4386 14.458V11.683C23.4386 11.5965 23.5088 11.5264 23.5952 11.5264H25.9078C25.9943 11.5264 26.0645 11.5965 26.0645 11.683V14.458C26.0645 14.5445 25.9943 14.6146 25.9078 14.6146Z" fill="#7C589F"/>
<path d="M30.5058 14.6146H28.1933C28.1068 14.6146 28.0366 14.5445 28.0366 14.458V11.683C28.0366 11.5965 28.1068 11.5264 28.1933 11.5264H30.5058C30.5923 11.5264 30.6625 11.5965 30.6625 11.683V14.458C30.6625 14.5445 30.5923 14.6146 30.5058 14.6146Z" fill="#7C589F"/>
<path d="M21.3097 21.5058H18.9972C18.9107 21.5058 18.8405 21.4356 18.8405 21.3491V18.5741C18.8405 18.4876 18.9107 18.4175 18.9972 18.4175H21.3097C21.3962 18.4175 21.4664 18.4876 21.4664 18.5741V21.3491C21.4664 21.4356 21.3962 21.5058 21.3097 21.5058Z" fill="#7C589F"/>
<path d="M25.9078 21.5058H23.5952C23.5088 21.5058 23.4386 21.4356 23.4386 21.3491V18.5741C23.4386 18.4876 23.5088 18.4175 23.5952 18.4175H25.9078C25.9943 18.4175 26.0645 18.4876 26.0645 18.5741V21.3491C26.0645 21.4356 25.9943 21.5058 25.9078 21.5058Z" fill="#7C589F"/>
<path d="M30.5058 21.5058H28.1933C28.1068 21.5058 28.0366 21.4356 28.0366 21.3491V18.5741C28.0366 18.4876 28.1068 18.4175 28.1933 18.4175H30.5058C30.5923 18.4175 30.6625 18.4876 30.6625 18.5741V21.3491C30.6625 21.4356 30.5923 21.5058 30.5058 21.5058Z" fill="#7C589F"/>
<path d="M25.9078 28.3969H23.5952C23.5088 28.3969 23.4386 28.3267 23.4386 28.2402V25.4652C23.4386 25.3788 23.5088 25.3086 23.5952 25.3086H25.9078C25.9943 25.3086 26.0645 25.3788 26.0645 25.4652V28.2402C26.0645 28.3267 25.9943 28.3969 25.9078 28.3969Z" fill="#7C589F"/>
<path d="M21.3097 28.3969H18.9972C18.9107 28.3969 18.8405 28.3267 18.8405 28.2402V25.4652C18.8405 25.3788 18.9107 25.3086 18.9972 25.3086H21.3097C21.3962 25.3086 21.4664 25.3788 21.4664 25.4652V28.2402C21.4664 28.3267 21.3962 28.3969 21.3097 28.3969Z" fill="#7C589F"/>
<path d="M30.5058 28.3969H28.1933C28.1068 28.3969 28.0366 28.3267 28.0366 28.2402V25.4652C28.0366 25.3788 28.1068 25.3086 28.1933 25.3086H30.5058C30.5923 25.3086 30.6625 25.3788 30.6625 25.4652V28.2402C30.6625 28.3267 30.5923 28.3969 30.5058 28.3969Z" fill="#7C589F"/>
<path d="M35.1506 27.1768L27.2986 32.4317L24.9585 32.3003L24.867 31.3793C24.7306 30.0082 23.6749 28.9079 22.3107 28.7148L16.0409 27.9929C14.5945 27.7882 13.202 27.3036 11.9412 26.5661C10.2198 25.5591 8.26142 25.0283 6.26713 25.0283H1.74658V35.3468L13.6938 39.871C14.1453 39.9985 14.6195 40.0366 15.083 39.9634C15.0858 39.9629 15.0885 39.9625 15.0913 39.9621L27.1194 38.2282C28.046 38.0803 28.917 37.69 29.6442 37.0969L37.4181 30.1051C38.1158 29.4856 38.2452 28.4445 37.7202 27.6731C37.146 26.8291 35.9978 26.6074 35.1506 27.1768Z" fill="#FED9A8"/>
<path d="M37.8228 27.8442L30.1389 34.3123C29.4117 34.9053 28.2029 35.2956 27.2763 35.4436L15.0913 36.3146C15.0885 36.3151 15.0858 36.3155 15.083 36.316C14.6195 36.3892 14.1453 36.351 13.6938 36.2235L1.74658 31.6992V35.3464L13.6938 39.8706C13.9196 39.9344 14.151 39.9758 14.3839 39.9921C14.4421 39.9962 14.5005 39.9987 14.5588 39.9996C14.7339 40.0024 14.9092 39.9906 15.083 39.9631C15.0858 39.9626 15.0885 39.9622 15.0913 39.9617L27.1194 38.2279C27.409 38.1817 27.6931 38.1117 27.9691 38.0194C28.0244 38.0009 28.0792 37.9816 28.1338 37.9613C28.4064 37.86 28.6704 37.7364 28.9231 37.592C28.9736 37.5631 29.0237 37.5333 29.0733 37.5028C29.2717 37.3805 29.4625 37.2449 29.6443 37.0966L37.4182 30.1048C38.0655 29.5301 38.2225 28.5928 37.8228 27.8442Z" fill="#F4C892"/>
<path d="M25.8696 32.3523L12.6342 31.8227C12.571 31.8202 12.5095 31.8016 12.4555 31.7687L11.7525 31.3405C11.4106 31.1322 11.5938 30.6049 11.9912 30.6535L25.8696 32.3523Z" fill="#F4C892"/>
<path d="M3.27008 38.8512H1.48156C0.663281 38.8512 0 38.1879 0 37.3697V24.1339C0 23.3156 0.663359 22.6523 1.48156 22.6523H3.27016C4.08844 22.6523 4.75172 23.3157 4.75172 24.1339V37.3697C4.75164 38.188 4.08836 38.8512 3.27008 38.8512Z" fill="url(#paint1_linear)"/>
<defs>
<linearGradient id="paint0_linear" x1="16.9116" y1="0.546448" x2="33.0835" y2="34.1011" gradientUnits="userSpaceOnUse">
<stop stop-color="#F37A51"/>
<stop offset="1" stop-color="#D75529"/>
</linearGradient>
<linearGradient id="paint1_linear" x1="0.0365638" y1="23.2422" x2="4.72406" y2="38.8281" gradientUnits="userSpaceOnUse">
<stop stop-color="#F37A51"/>
<stop offset="1" stop-color="#BD4922"/>
</linearGradient>
</defs>
</svg>
