<svg width="28" height="16" viewBox="0 0 28 16" fill="none" xmlns="http://www.w3.org/2000/svg">
<path d="M20.5443 6.44516L16.7978 5.90393C16.5176 5.86333 16.2753 5.68834 16.1499 5.43598L14.4745 2.06096C14.1589 1.42499 13.2468 1.42499 12.9312 2.06096L11.2558 5.43598C11.1306 5.68834 10.8881 5.86333 10.6079 5.90393L6.86147 6.44516C6.15564 6.54714 5.87388 7.40949 6.38459 7.90423L9.09557 10.5315C9.2984 10.7279 9.39094 11.0112 9.34309 11.2886L8.70312 14.9981C8.58253 15.697 9.3204 16.2298 9.9517 15.9L13.3026 14.1486C13.5533 14.0176 13.8528 14.0176 14.1035 14.1486L17.4543 15.9C18.0856 16.2298 18.8235 15.6968 18.7029 14.9981L18.0629 11.2886C18.0151 11.0112 18.1076 10.7279 18.3104 10.5315L21.0214 7.90423C21.5319 7.40935 21.2501 6.547 20.5443 6.44516Z" fill="#7C589F"/>
<path d="M11.733 4.47357L11.2554 5.43626C11.1306 5.68753 10.888 5.86279 10.6074 5.90367L6.86191 6.44434C6.15511 6.5466 5.87446 7.40991 6.38434 7.90383L9.09546 10.5319C9.29829 10.7277 9.39083 11.011 9.3438 11.2887L9.02781 13.1148L7.97862 12.5655C7.72876 12.434 7.42899 12.434 7.17776 12.5655L3.8275 14.3172C3.19565 14.6458 2.45805 14.114 2.57851 13.4144L3.21916 9.70536C3.26619 9.4277 3.17365 9.14431 2.97082 8.94854L0.261215 6.32008C-0.25018 5.82492 0.0319881 4.96298 0.73727 4.86073L4.48424 4.32019C4.76339 4.27931 5.00595 4.10392 5.13232 3.85278L6.80745 0.476664C7.12331 -0.158888 8.03444 -0.158888 8.3503 0.476664L10.0254 3.85278C10.1518 4.10405 10.3929 4.27931 10.6735 4.32019L11.733 4.47357Z" fill="url(#paint0_linear)"/>
<path d="M24.4347 8.94827C24.2319 9.14404 24.1393 9.42743 24.1864 9.70508L24.827 13.4141C24.9475 14.1139 24.2099 14.6455 23.578 14.3169L20.2278 12.5653C19.9765 12.4338 19.6768 12.4338 19.4269 12.5653L18.3777 13.1131L18.0632 11.2884C18.0147 11.0109 18.1074 10.7275 18.3101 10.5316L21.0212 7.90369C21.5326 7.40991 21.2504 6.5466 20.5436 6.44421L16.798 5.90367C16.5174 5.86279 16.2749 5.68753 16.1499 5.43626L15.6724 4.47357L16.7319 4.32019C17.0125 4.27931 17.255 4.10392 17.3799 3.85278L19.0551 0.476664C19.3711 -0.158888 20.2836 -0.158888 20.5979 0.476664L22.2746 3.85278C22.3994 4.10405 22.642 4.27931 22.9225 4.32019L26.6681 4.86073C27.3734 4.96298 27.6556 5.82492 27.1457 6.32008L24.4347 8.94827Z" fill="url(#paint1_linear)"/>
<path d="M14.7338 2.58385L13.3189 5.43556C13.1937 5.68847 12.9503 5.86346 12.6712 5.9031L8.92407 6.44446C8.21866 6.54699 7.93676 7.40961 8.44692 7.90313L11.1586 10.5306C11.3607 10.7275 11.4542 11.0105 11.4061 11.288L10.7653 14.9982C10.7378 15.1609 10.7557 15.3154 10.8107 15.4507L9.95126 15.8991C9.3201 16.23 8.58305 15.6968 8.70269 14.9982L9.34348 11.288C9.3916 11.0105 9.2981 10.7275 9.09596 10.5306L6.38429 7.90313C5.87413 7.40961 6.15603 6.54699 6.86144 6.44446L10.6086 5.9031C10.8877 5.86346 11.1311 5.68847 11.2562 5.43556L12.9311 2.06026C13.2473 1.42457 14.159 1.42457 14.4739 2.06026L14.7338 2.58385Z" fill="#7C589F"/>
<path d="M18.3105 10.5306C18.107 10.7275 18.0149 11.0105 18.063 11.288L18.7024 14.9982C18.8234 15.6968 18.085 16.23 17.4538 15.8991L16.5958 15.4507C16.6494 15.3154 16.6686 15.1609 16.6398 14.9982L16.0003 11.288C15.9522 11.0105 16.0444 10.7275 16.2479 10.5306L18.9582 7.90313C19.4697 7.40961 19.1878 6.54699 18.4824 6.44446L14.7353 5.9031C14.4548 5.86346 14.2127 5.68847 14.0876 5.43556L12.6713 2.58385L12.9312 2.06026C13.2474 1.42457 14.1591 1.42457 14.474 2.06026L16.1502 5.43556C16.2754 5.68847 16.5174 5.86346 16.7979 5.9031L20.545 6.44446C21.2504 6.54699 21.5323 7.40961 21.0208 7.90313L18.3105 10.5306Z" fill="#7C589F"/>
<defs>
<linearGradient id="paint0_linear" x1="5.86651" y1="0" x2="5.86651" y2="14.4168" gradientUnits="userSpaceOnUse">
<stop stop-color="#7C589F"/>
<stop offset="1" stop-color="#3E1C60"/>
</linearGradient>
<linearGradient id="paint1_linear" x1="21.5391" y1="0" x2="21.5391" y2="14.4165" gradientUnits="userSpaceOnUse">
<stop stop-color="#7C589F"/>
<stop offset="1" stop-color="#3E1C60"/>
</linearGradient>
</defs>
</svg>
