<svg width="24" height="24" viewBox="0 0 24 24" fill="none" xmlns="http://www.w3.org/2000/svg">
<rect width="24" height="24" rx="2" fill="#F37A51"/>
<path d="M18.4142 10.3021C18.5158 10.2214 18.6668 10.2969 18.6668 10.4245V15.75C18.6668 16.4401 18.1069 17 17.4168 17H6.5835C5.89339 17 5.3335 16.4401 5.3335 15.75V10.4271C5.3335 10.2969 5.48193 10.224 5.5861 10.3047C6.16943 10.7578 6.94287 11.3333 9.59912 13.263C10.1486 13.6641 11.0757 14.5078 12.0002 14.5026C12.9299 14.5104 13.8752 13.6484 14.4038 13.263C17.0601 11.3333 17.8309 10.7552 18.4142 10.3021ZM12.0002 13.6667C12.6043 13.6771 13.4741 12.9063 13.9116 12.5885C17.3674 10.0807 17.6304 9.86198 18.4272 9.23698C18.5783 9.11979 18.6668 8.9375 18.6668 8.74479V8.25C18.6668 7.5599 18.1069 7 17.4168 7H6.5835C5.89339 7 5.3335 7.5599 5.3335 8.25V8.74479C5.3335 8.9375 5.42204 9.11719 5.57308 9.23698C6.36995 9.85937 6.63298 10.0807 10.0887 12.5885C10.5262 12.9063 11.396 13.6771 12.0002 13.6667Z" fill="white"/>
</svg>
