<svg width="40" height="40" viewBox="0 0 40 40" fill="none" xmlns="http://www.w3.org/2000/svg">
<rect width="40" height="40" rx="2" fill="#F37A51"/>
<path d="M29.5236 8.88889H10.471C9.598 8.88889 8.88867 9.60813 8.88867 10.4911V29.5089C8.88867 30.3919 9.598 31.1111 10.471 31.1111H29.5236C30.3966 31.1111 31.1109 30.3919 31.1109 29.5089V10.4911C31.1109 9.60813 30.3966 8.88889 29.5236 8.88889ZM15.6049 27.9365H12.3113V17.3313H15.6099V27.9365H15.6049ZM13.9581 15.8829C12.9016 15.8829 12.0484 15.0248 12.0484 13.9732C12.0484 12.9216 12.9016 12.0635 13.9581 12.0635C15.0097 12.0635 15.8678 12.9216 15.8678 13.9732C15.8678 15.0298 15.0147 15.8829 13.9581 15.8829V15.8829ZM27.9512 27.9365H24.6575V22.7778C24.6575 21.5476 24.6327 19.9653 22.9462 19.9653C21.2299 19.9653 20.967 21.3046 20.967 22.6885V27.9365H17.6734V17.3313H20.8331V18.7798H20.8778C21.3192 17.9464 22.3956 17.0684 23.9978 17.0684C27.3311 17.0684 27.9512 19.2659 27.9512 22.123V27.9365V27.9365Z" fill="white"/>
</svg>
