<svg width="20" height="20" viewBox="0 0 20 20" fill="none" xmlns="http://www.w3.org/2000/svg">
<path d="M18.0698 10.9652C18.0698 15.955 14.0244 20 9.03474 20C7.81068 20 6.64384 19.7566 5.57953 19.3154C2.6706 18.1105 0.527955 15.4296 0.0849915 12.207C0.0286865 11.8011 0 11.3865 0 10.9652C0 5.97513 4.04496 1.93018 9.03474 1.93018C14.0244 1.93018 18.0698 5.97513 18.0698 10.9652Z" fill="url(#paint0_linear)"/>
<path d="M19.1977 10.2974L14.0385 13.7137C13.671 13.9572 13.2257 14.0538 12.7905 13.9842C12.3543 13.9148 11.908 14.01 11.5395 14.254L10.849 14.7116L6.98242 9.01198L7.93106 4.91377C8.00476 4.59471 8.04123 4.27138 8.04123 3.94926C8.04123 3.11598 7.79755 2.29353 7.33017 1.58751C7.21527 1.41386 7.16034 1.21748 7.16034 1.02354C7.16034 0.692119 7.32117 0.366953 7.61841 0.170115C8.01895 -0.0952357 8.54981 -0.0459497 8.89465 0.288523L9.50928 0.883769C10.2121 1.56569 10.7542 2.39592 11.0947 3.31419L11.4279 4.21141L14.8598 1.94395C15.4079 1.5811 16.1493 1.73979 16.4993 2.30116C16.8369 2.84193 16.6635 3.5565 16.1318 3.90852C16.1253 3.91279 16.1249 3.91966 16.127 3.92485C16.1301 3.93049 16.1365 3.93431 16.1437 3.93126C16.2793 3.87907 16.4212 3.85374 16.5619 3.85374C16.7865 3.85374 17.0091 3.91844 17.1996 4.04158C17.3308 4.12642 17.4471 4.23918 17.5388 4.37773C17.7159 4.64537 17.7687 4.95924 17.7107 5.25099C17.6198 5.71059 17.2858 5.9474 17.2202 5.99196C17.209 5.99974 17.206 6.01515 17.2138 6.02675C17.2138 6.02705 17.2142 6.02751 17.2145 6.02751C17.2218 6.03789 17.2368 6.04079 17.2475 6.03407C17.341 6.01134 17.4362 6.0005 17.5314 6.0005C17.7638 6.0005 17.995 6.06657 18.1915 6.19185C18.3244 6.27684 18.4419 6.38914 18.5329 6.52678C18.8896 7.06541 18.7422 7.79143 18.203 8.14833C18.1897 8.15733 18.1764 8.16634 18.1632 8.17488C18.1555 8.18099 18.1532 8.19075 18.1572 8.19762C18.158 8.1993 18.1598 8.20113 18.1615 8.20189C18.1674 8.20662 18.1769 8.20708 18.1847 8.20113C18.5196 8.08699 18.8841 8.13887 19.1774 8.32884C19.3124 8.41551 19.4322 8.53224 19.527 8.67537C19.8839 9.21446 19.7363 9.94048 19.1977 10.2974Z" fill="white"/>
<path d="M10.8983 15.7933L8.72175 17.2347L5.5795 19.3155C2.67056 18.1104 0.527924 15.43 0.0849609 12.2071L3.73151 9.79221L5.95136 8.32203C6.20694 8.15265 6.55179 8.223 6.72117 8.47904L11.0553 15.0231C11.2246 15.2791 11.1543 15.6234 10.8983 15.7933Z" fill="#333333"/>
<path d="M10.8983 15.7933L8.72181 17.2347L3.73157 9.79221L5.95142 8.32203C6.207 8.15265 6.55185 8.223 6.72122 8.47904L11.0553 15.0229C11.2247 15.2791 11.1544 15.6234 10.8983 15.7933Z" fill="#EBEBEB"/>
<path d="M17.1996 4.04144L15.4828 4.96018C15.2393 5.09018 14.9373 5.02228 14.7736 4.80057L16.127 3.92487C16.1301 3.93051 16.1365 3.93433 16.1436 3.93127C16.2793 3.87909 16.4212 3.85376 16.5619 3.85376C16.7867 3.85376 17.0091 3.91846 17.1996 4.04144Z" fill="#EBEBEB"/>
<path d="M18.1915 6.19183L16.5121 7.08981C16.2686 7.22028 15.9666 7.15253 15.8027 6.93082L17.1562 6.05496L17.2146 6.0275C17.222 6.03787 17.2369 6.04077 17.2476 6.03406C17.3411 6.01132 17.4363 6.00049 17.5316 6.00049C17.7639 6.00049 17.9951 6.06656 18.1915 6.19183Z" fill="#EBEBEB"/>
<path d="M19.1776 8.32891L17.6984 9.12023C17.4552 9.25008 17.1534 9.18233 16.989 8.96062L18.1615 8.20196C18.1676 8.20669 18.1771 8.20714 18.1847 8.20104C18.5196 8.08706 18.8842 8.13894 19.1776 8.32891Z" fill="#EBEBEB"/>
<defs>
<linearGradient id="paint0_linear" x1="4.1099" y1="3.26804" x2="15.0884" y2="18.1604" gradientUnits="userSpaceOnUse">
<stop stop-color="#7C589F"/>
<stop offset="1" stop-color="#6B3D99"/>
</linearGradient>
</defs>
</svg>
