<svg width="40" height="40" viewBox="0 0 40 40" fill="none" xmlns="http://www.w3.org/2000/svg">
<rect width="40" height="40" rx="2" fill="#F37A51"/>
<path d="M31.1109 20.0672C31.1109 13.9292 26.1378 8.95609 19.9998 8.95609C13.8618 8.95609 8.88867 13.9292 8.88867 20.0672C8.88867 25.6129 12.9518 30.2097 18.2637 31.0439V23.2791H15.4411V20.0672H18.2637V17.6192C18.2637 14.8347 19.9214 13.2966 22.4604 13.2966C23.6763 13.2966 24.9478 13.5134 24.9478 13.5134V16.2464H23.5464C22.1664 16.2464 21.7359 17.103 21.7359 17.9816V20.0672H24.8174L24.3246 23.2791H21.7359V31.0439C27.0477 30.2097 31.1109 25.6129 31.1109 20.0672Z" fill="white"/>
</svg>
