<svg width="40" height="40" viewBox="0 0 40 40" fill="none" xmlns="http://www.w3.org/2000/svg">
<rect width="40" height="40" rx="2" fill="#F37A51"/>
<path d="M20 17.3542C19.4768 17.3544 18.9653 17.5097 18.5304 17.8006C18.0954 18.0914 17.7564 18.5047 17.5563 18.9882C17.3562 19.4717 17.3039 20.0036 17.4061 20.5168C17.5083 21.03 17.7604 21.5013 18.1305 21.8713C18.5005 22.2412 18.972 22.4931 19.4852 22.5951C19.9984 22.6971 20.5304 22.6446 21.0138 22.4444C21.4972 22.2441 21.9103 21.905 22.201 21.4699C22.4917 21.0348 22.6469 20.5233 22.6469 20C22.6463 19.2983 22.3673 18.6255 21.871 18.1294C21.3747 17.6333 20.7018 17.3545 20 17.3542V17.3542ZM26.186 15.3205C26.0513 14.9791 25.8479 14.6691 25.5885 14.4096C25.329 14.1501 25.019 13.9467 24.6776 13.812C23.6359 13.4008 21.1558 13.4931 20 13.4931C18.8443 13.4931 16.3666 13.3973 15.322 13.812C14.9806 13.9467 14.6706 14.1501 14.4111 14.4096C14.1516 14.6691 13.9482 14.9791 13.8135 15.3205C13.4028 16.3621 13.4946 18.8448 13.4946 19.9995C13.4946 21.1543 13.4028 23.634 13.8155 24.6791C13.9502 25.0204 14.1536 25.3305 14.4131 25.59C14.6726 25.8494 14.9826 26.0528 15.3239 26.1875C16.3656 26.5987 18.8458 26.5065 20.002 26.5065C21.1583 26.5065 23.6349 26.6022 24.6796 26.1875C25.0209 26.0528 25.331 25.8494 25.5904 25.59C25.8499 25.3305 26.0533 25.0204 26.188 24.6791C26.6022 23.6374 26.507 21.1548 26.507 20C26.507 18.8453 26.6022 16.3661 26.188 15.321L26.186 15.3205ZM20 24.0675C19.1956 24.0675 18.4092 23.8289 17.7403 23.382C17.0714 22.9351 16.55 22.2998 16.2422 21.5566C15.9343 20.8133 15.8538 19.9955 16.0107 19.2065C16.1677 18.4175 16.5551 17.6927 17.1239 17.1239C17.6927 16.5551 18.4175 16.1677 19.2065 16.0107C19.9955 15.8538 20.8133 15.9343 21.5566 16.2422C22.2998 16.55 22.9351 17.0714 23.382 17.7403C23.8289 18.4092 24.0675 19.1956 24.0675 20C24.0681 20.5344 23.9634 21.0636 23.7592 21.5573C23.555 22.0511 23.2554 22.4998 22.8776 22.8776C22.4998 23.2554 22.0511 23.555 21.5573 23.7592C21.0636 23.9634 20.5344 24.0681 20 24.0675V24.0675ZM24.2351 16.7113C24.0473 16.7114 23.8637 16.6558 23.7075 16.5516C23.5514 16.4473 23.4296 16.2991 23.3577 16.1256C23.2857 15.9521 23.2668 15.7612 23.3034 15.577C23.34 15.3928 23.4304 15.2236 23.5631 15.0908C23.6959 14.958 23.8651 14.8675 24.0492 14.8308C24.2334 14.7941 24.4243 14.8129 24.5979 14.8847C24.7714 14.9566 24.9197 15.0783 25.024 15.2344C25.1284 15.3906 25.1841 15.5741 25.1841 15.7619C25.1846 15.8866 25.1605 16.0102 25.1131 16.1256C25.0658 16.241 24.9961 16.3459 24.9081 16.4342C24.8202 16.5226 24.7156 16.5928 24.6005 16.6407C24.4853 16.6886 24.3618 16.7133 24.2371 16.7133L24.2351 16.7113ZM28.7302 8.88892H11.2699C10.6384 8.88892 10.0328 9.13977 9.58628 9.58628C9.13977 10.0328 8.88892 10.6384 8.88892 11.2699V28.7302C8.88892 29.3617 9.13977 29.9673 9.58628 30.4138C10.0328 30.8603 10.6384 31.1111 11.2699 31.1111H28.7302C29.3617 31.1111 29.9673 30.8603 30.4138 30.4138C30.8603 29.9673 31.1111 29.3617 31.1111 28.7302V11.2699C31.1111 10.6384 30.8603 10.0328 30.4138 9.58628C29.9673 9.13977 29.3617 8.88892 28.7302 8.88892V8.88892ZM27.881 23.2738C27.817 24.5452 27.5268 25.6717 26.5987 26.5972C25.6707 27.5228 24.5452 27.819 23.2753 27.8795C21.9653 27.9534 18.0377 27.9534 16.7277 27.8795C15.4564 27.8155 14.3339 27.5248 13.4043 26.5972C12.4747 25.6697 12.1826 24.5427 12.1221 23.2738C12.0481 21.9633 12.0481 18.0352 12.1221 16.7262C12.186 15.4549 12.4727 14.3284 13.4043 13.4028C14.3358 12.4772 15.4613 12.1846 16.7277 12.124C18.0377 12.0501 21.9653 12.0501 23.2753 12.124C24.5467 12.188 25.6726 12.4787 26.5987 13.4063C27.5248 14.3339 27.8205 15.4608 27.881 16.7322C27.9549 18.0377 27.9549 21.9623 27.881 23.2738Z" fill="white"/>
</svg>
