<svg width="24" height="24" viewBox="0 0 24 24" fill="none" xmlns="http://www.w3.org/2000/svg">
<rect width="24" height="24" rx="2" fill="#F37A51"/>
<path d="M18.2866 14.7551L15.3699 13.5051C15.2453 13.452 15.1068 13.4408 14.9753 13.4732C14.8438 13.5056 14.7263 13.5799 14.6407 13.6848L13.349 15.263C11.3218 14.3072 9.6904 12.6758 8.7346 10.6486L10.3127 9.35688C10.4179 9.27137 10.4923 9.15395 10.5247 9.02238C10.5571 8.89081 10.5458 8.75225 10.4924 8.6277L9.24242 5.71098C9.18385 5.57671 9.08027 5.46708 8.94954 5.401C8.8188 5.33492 8.6691 5.31653 8.52626 5.34899L5.81788 5.974C5.68016 6.00581 5.55729 6.08335 5.46931 6.19398C5.38134 6.30461 5.33346 6.44179 5.3335 6.58313C5.3335 13.2629 10.7477 18.6667 17.417 18.6667C17.5584 18.6668 17.6957 18.6189 17.8064 18.5309C17.917 18.443 17.9946 18.3201 18.0264 18.1823L18.6514 15.4739C18.6837 15.3304 18.6649 15.1801 18.5983 15.0489C18.5317 14.9177 18.4215 14.8138 18.2866 14.7551V14.7551Z" fill="white"/>
</svg>
