<svg width="21" height="16" viewBox="0 0 21 16" fill="none" xmlns="http://www.w3.org/2000/svg">
<path d="M8.00001 0.3479H6.25536C5.98008 0.347912 5.71608 0.457271 5.52143 0.651922C5.32678 0.846574 5.21742 1.11057 5.21741 1.38585V3.82615H6.60871V1.7392H8.00001V0.3479Z" fill="#FE99A0"/>
<path d="M12.1738 0.3479H13.9185C14.1938 0.347912 14.4578 0.457271 14.6524 0.651922C14.8471 0.846574 14.9564 1.11057 14.9564 1.38585V3.82615H13.5651V1.7392H12.1738V0.3479Z" fill="#FE99A0"/>
<path d="M0 3.47827H20.1738V14.9637C20.1738 15.2385 20.0647 15.5021 19.8703 15.6964C19.676 15.8908 19.4124 16 19.1375 16H1.0363C0.761456 16 0.497869 15.8908 0.303525 15.6964C0.109181 15.5021 0 15.2385 0 14.9637V3.47827Z" fill="url(#paint0_linear)"/>
<path d="M7.6521 0H12.5216V2.08695H7.6521V0Z" fill="#7C589F"/>
<path d="M17.7385 10.4347H2.4353C2.11549 10.4347 1.79881 10.3717 1.50334 10.2493C1.20788 10.1269 0.939408 9.94754 0.713269 9.72141C0.48713 9.49527 0.307747 9.2268 0.185364 8.93133C0.0629811 8.63587 -5.70942e-06 8.31919 3.88164e-10 7.99938V4.17383H20.1738V7.99938C20.1738 8.31919 20.1109 8.63587 19.9885 8.93133C19.8661 9.2268 19.6867 9.49527 19.4606 9.72141C19.2344 9.94754 18.966 10.1269 18.6705 10.2493C18.375 10.3717 18.0584 10.4347 17.7385 10.4347Z" fill="white"/>
<path d="M17.7385 9.73912H2.4353C2.11549 9.73912 1.79881 9.67614 1.50334 9.55375C1.20788 9.43137 0.939408 9.25199 0.713269 9.02585C0.48713 8.79971 0.307747 8.53124 0.185364 8.23578C0.0629811 7.94031 -5.70942e-06 7.62363 3.88164e-10 7.30382V3.47827H20.1738V7.30382C20.1738 7.62363 20.1109 7.94031 19.9885 8.23578C19.8661 8.53124 19.6867 8.79971 19.4606 9.02585C19.2344 9.25199 18.966 9.43137 18.6705 9.55375C18.375 9.67614 18.0584 9.73912 17.7385 9.73912Z" fill="url(#paint1_linear)"/>
<path d="M3.82605 8.69556H5.913V10.4347C5.913 10.7114 5.80306 10.9768 5.60737 11.1725C5.41168 11.3682 5.14627 11.4782 4.86952 11.4782C4.59278 11.4782 4.32737 11.3682 4.13168 11.1725C3.93599 10.9768 3.82605 10.7114 3.82605 10.4347V8.69556Z" fill="white"/>
<path d="M3.82605 8.3479H5.913V10.087C5.913 10.3638 5.80306 10.6292 5.60737 10.8249C5.41168 11.0206 5.14627 11.1305 4.86952 11.1305C4.59278 11.1305 4.32737 11.0206 4.13168 10.8249C3.93599 10.6292 3.82605 10.3638 3.82605 10.087V8.3479Z" fill="#FE99A0"/>
<path d="M14.2609 8.69556H16.3478V10.4347C16.3478 10.7114 16.2379 10.9768 16.0422 11.1725C15.8465 11.3682 15.5811 11.4782 15.3043 11.4782C15.0276 11.4782 14.7622 11.3682 14.5665 11.1725C14.3708 10.9768 14.2609 10.7114 14.2609 10.4347V8.69556Z" fill="white"/>
<path d="M14.2609 8.3479H16.3478V10.087C16.3478 10.3638 16.2379 10.6292 16.0422 10.8249C15.8465 11.0206 15.5811 11.1305 15.3043 11.1305C15.0276 11.1305 14.7622 11.0206 14.5665 10.8249C14.3708 10.6292 14.2609 10.3638 14.2609 10.087V8.3479Z" fill="#FE99A0"/>
<path d="M8.34778 5.56519H11.826V7.65213H8.34778V5.56519Z" fill="white"/>
<defs>
<linearGradient id="paint0_linear" x1="0.533331" y1="4.53322" x2="20.2666" y2="15.9998" gradientUnits="userSpaceOnUse">
<stop stop-color="#8A61B4"/>
<stop offset="1" stop-color="#5A3D77"/>
</linearGradient>
<linearGradient id="paint1_linear" x1="4.22584e-07" y1="3.73322" x2="20.7999" y2="11.1999" gradientUnits="userSpaceOnUse">
<stop stop-color="#7C589F"/>
<stop offset="1" stop-color="#583779"/>
</linearGradient>
</defs>
</svg>
