<svg width="19" height="20" viewBox="0 0 19 20" fill="none" xmlns="http://www.w3.org/2000/svg">
<path d="M8.85433 20.0002C13.7444 20.0002 17.7087 15.957 17.7087 10.9696C17.7087 5.98211 13.7444 1.93896 8.85433 1.93896C3.96422 1.93896 0 5.98211 0 10.9696C0 15.957 3.96422 20.0002 8.85433 20.0002Z" fill="url(#paint0_linear)"/>
<path d="M11.144 11.3659C11.0655 11.8793 10.8237 12.338 10.4746 12.684H9.56083L7.26521 12.6836C7.25744 12.6761 7.24967 12.6682 7.24189 12.6603C6.9049 12.3169 6.67207 11.8674 6.59511 11.3651C6.56557 11.1732 6.7121 11 6.90256 11H10.8369C11.0274 11 11.1735 11.1736 11.144 11.3659Z" fill="#978ECB"/>
<path d="M11.1439 11.3659C11.0654 11.8793 10.8237 12.338 10.4746 12.684H9.56079C9.91023 12.3376 10.1524 11.8785 10.2309 11.3643C10.2534 11.2165 10.1823 11.0702 10.0533 11H10.8369C11.0273 11 11.1735 11.1736 11.1439 11.3659Z" fill="#8379C1"/>
<path d="M13.5066 11.4684C14.1258 11.4684 14.6278 11.172 14.6278 10.8065C14.6278 10.4409 14.1258 10.1445 13.5066 10.1445C12.8875 10.1445 12.3855 10.4409 12.3855 10.8065C12.3855 11.172 12.8875 11.4684 13.5066 11.4684Z" fill="#FE99A0"/>
<path d="M13.5066 10.1445C13.3439 10.1445 13.1893 10.1652 13.0498 10.202C13.4412 10.3052 13.7142 10.537 13.7142 10.8064C13.7142 11.0759 13.4412 11.3076 13.0498 11.4108C13.1894 11.4477 13.3439 11.4683 13.5066 11.4683C14.1258 11.4683 14.6277 11.172 14.6277 10.8064C14.6277 10.4408 14.1258 10.1445 13.5066 10.1445Z" fill="#FD8087"/>
<path d="M4.20195 11.4684C4.82115 11.4684 5.3231 11.172 5.3231 10.8065C5.3231 10.4409 4.82115 10.1445 4.20195 10.1445C3.58276 10.1445 3.08081 10.4409 3.08081 10.8065C3.08081 11.172 3.58276 11.4684 4.20195 11.4684Z" fill="#FE99A0"/>
<path d="M4.20191 10.1445C4.03916 10.1445 3.88466 10.1652 3.74512 10.202C4.13657 10.3052 4.40947 10.537 4.40947 10.8064C4.40947 11.0759 4.13653 11.3076 3.74512 11.4108C3.8847 11.4477 4.03916 11.4683 4.20191 11.4683C4.8211 11.4683 5.32309 11.172 5.32309 10.8064C5.32309 10.4408 4.8211 10.1445 4.20191 10.1445Z" fill="#FD8087"/>
<path d="M10.4745 12.6841C10.0595 13.095 9.49382 13.3486 8.86962 13.3486C8.24585 13.3486 7.67972 13.095 7.26514 12.6837C7.69293 12.2991 8.25479 12.0654 8.86962 12.0654C9.48484 12.0654 10.0467 12.2991 10.4745 12.6841Z" fill="#FD4755"/>
<path d="M9.87953 12.29C9.78726 12.433 9.68064 12.5654 9.56081 12.6841C9.24985 12.992 8.85424 13.2115 8.41284 13.3022C8.56047 13.3326 8.71318 13.3485 8.86956 13.3485C9.49372 13.3485 10.0595 13.095 10.4744 12.6841C10.2973 12.5247 10.0969 12.3917 9.87953 12.29Z" fill="#FB2B3A"/>
<path d="M18.4584 0.643922H18.1186V0.297323C18.1186 0.133121 17.988 0 17.827 0C17.6661 0 17.5355 0.133121 17.5355 0.297323V0.643922H17.1957C17.0347 0.643922 16.9042 0.777044 16.9042 0.941245C16.9042 1.10545 17.0347 1.23857 17.1957 1.23857H17.5355V1.58517C17.5355 1.74937 17.6661 1.88249 17.827 1.88249C17.988 1.88249 18.1186 1.74937 18.1186 1.58517V1.23857H18.4584C18.6194 1.23857 18.7499 1.10545 18.7499 0.941245C18.7499 0.777044 18.6194 0.643922 18.4584 0.643922Z" fill="#333333"/>
<path d="M1.62075 17.8666H1.28092V17.52C1.28092 17.3558 1.1504 17.2227 0.9894 17.2227C0.828404 17.2227 0.697881 17.3558 0.697881 17.52V17.8666H0.358048C0.197051 17.8666 0.0665283 17.9997 0.0665283 18.1639C0.0665283 18.3281 0.197051 18.4612 0.358048 18.4612H0.697881V18.8078C0.697881 18.972 0.828404 19.1051 0.9894 19.1051C1.1504 19.1051 1.28092 18.972 1.28092 18.8078V18.4612H1.62075C1.78175 18.4612 1.91227 18.3281 1.91227 18.1639C1.91227 17.9997 1.78175 17.8666 1.62075 17.8666Z" fill="#333333"/>
<path d="M16.0559 3.33802C16.2198 3.33802 16.3526 3.20256 16.3526 3.03547C16.3526 2.86837 16.2198 2.73291 16.0559 2.73291C15.8921 2.73291 15.7593 2.86837 15.7593 3.03547C15.7593 3.20256 15.8921 3.33802 16.0559 3.33802Z" fill="#333333"/>
<path d="M6.31536 9.21567C6.15436 9.21567 6.02384 9.08255 6.02384 8.91835C6.02384 8.65532 5.81402 8.44133 5.55612 8.44133C5.29823 8.44133 5.08841 8.65532 5.08841 8.91835C5.08841 9.08255 4.95789 9.21567 4.79689 9.21567C4.63589 9.21567 4.50537 9.08255 4.50537 8.91835C4.50537 8.32743 4.97674 7.84668 5.55612 7.84668C6.13551 7.84668 6.60688 8.32743 6.60688 8.91835C6.60688 9.08259 6.47635 9.21567 6.31536 9.21567Z" fill="white"/>
<path d="M12.8338 9.21543C12.6728 9.21543 12.5423 9.08231 12.5423 8.91811C12.5423 8.65508 12.3325 8.44108 12.0746 8.44108C11.8167 8.44108 11.6068 8.65508 11.6068 8.91811C11.6068 9.08231 11.4763 9.21543 11.3153 9.21543C11.1543 9.21543 11.0238 9.08231 11.0238 8.91811C11.0238 8.32719 11.4952 7.84644 12.0746 7.84644C12.6539 7.84644 13.1253 8.32719 13.1253 8.91811C13.1253 9.08235 12.9948 9.21543 12.8338 9.21543Z" fill="white"/>
<defs>
<linearGradient id="paint0_linear" x1="3.25" y1="3.50012" x2="15.5" y2="17.5001" gradientUnits="userSpaceOnUse">
<stop stop-color="#603D84"/>
<stop offset="0.988259" stop-color="#360350"/>
</linearGradient>
</defs>
</svg>
