<svg width="168" height="25" viewBox="0 0 168 25" fill="none" xmlns="http://www.w3.org/2000/svg">
<path d="M8.76562 19H5.13281V4.89062H0.480469V1.86719H13.418V4.89062H8.76562V19ZM24.0938 19L23.4023 17.2188H23.3086C22.707 17.9766 22.0859 18.5039 21.4453 18.8008C20.8125 19.0898 19.9844 19.2344 18.9609 19.2344C17.7031 19.2344 16.7109 18.875 15.9844 18.1562C15.2656 17.4375 14.9062 16.4141 14.9062 15.0859C14.9062 13.6953 15.3906 12.6719 16.3594 12.0156C17.3359 11.3516 18.8047 10.9844 20.7656 10.9141L23.0391 10.8438V10.2695C23.0391 8.94141 22.3594 8.27734 21 8.27734C19.9531 8.27734 18.7227 8.59375 17.3086 9.22656L16.125 6.8125C17.6328 6.02344 19.3047 5.62891 21.1406 5.62891C22.8984 5.62891 24.2461 6.01172 25.1836 6.77734C26.1211 7.54297 26.5898 8.70703 26.5898 10.2695V19H24.0938ZM23.0391 12.9297L21.6562 12.9766C20.6172 13.0078 19.8438 13.1953 19.3359 13.5391C18.8281 13.8828 18.5742 14.4062 18.5742 15.1094C18.5742 16.1172 19.1523 16.6211 20.3086 16.6211C21.1367 16.6211 21.7969 16.3828 22.2891 15.9062C22.7891 15.4297 23.0391 14.7969 23.0391 14.0078V12.9297ZM42.375 19H38.8008V11.3477C38.8008 10.4023 38.6328 9.69531 38.2969 9.22656C37.9609 8.75 37.4258 8.51172 36.6914 8.51172C35.6914 8.51172 34.9688 8.84766 34.5234 9.51953C34.0781 10.1836 33.8555 11.2891 33.8555 12.8359V19H30.2812V5.89844H33.0117L33.4922 7.57422H33.6914C34.0898 6.94141 34.6367 6.46484 35.332 6.14453C36.0352 5.81641 36.832 5.65234 37.7227 5.65234C39.2461 5.65234 40.4023 6.06641 41.1914 6.89453C41.9805 7.71484 42.375 8.90234 42.375 10.457V19ZM44.1797 5.89844H48.0938L50.5664 13.2695C50.7773 13.9102 50.9219 14.668 51 15.543H51.0703C51.1562 14.7383 51.3242 13.9805 51.5742 13.2695L54 5.89844H57.832L52.2891 20.6758C51.7812 22.043 51.0547 23.0664 50.1094 23.7461C49.1719 24.4258 48.0742 24.7656 46.8164 24.7656C46.1992 24.7656 45.5938 24.6992 45 24.5664V21.7305C45.4297 21.832 45.8984 21.8828 46.4062 21.8828C47.0391 21.8828 47.5898 21.6875 48.0586 21.2969C48.5352 20.9141 48.9062 20.332 49.1719 19.5508L49.3828 18.9062L44.1797 5.89844ZM68.0391 19L67.3477 17.2188H67.2539C66.6523 17.9766 66.0312 18.5039 65.3906 18.8008C64.7578 19.0898 63.9297 19.2344 62.9062 19.2344C61.6484 19.2344 60.6562 18.875 59.9297 18.1562C59.2109 17.4375 58.8516 16.4141 58.8516 15.0859C58.8516 13.6953 59.3359 12.6719 60.3047 12.0156C61.2812 11.3516 62.75 10.9844 64.7109 10.9141L66.9844 10.8438V10.2695C66.9844 8.94141 66.3047 8.27734 64.9453 8.27734C63.8984 8.27734 62.668 8.59375 61.2539 9.22656L60.0703 6.8125C61.5781 6.02344 63.25 5.62891 65.0859 5.62891C66.8438 5.62891 68.1914 6.01172 69.1289 6.77734C70.0664 7.54297 70.5352 8.70703 70.5352 10.2695V19H68.0391ZM66.9844 12.9297L65.6016 12.9766C64.5625 13.0078 63.7891 13.1953 63.2812 13.5391C62.7734 13.8828 62.5195 14.4062 62.5195 15.1094C62.5195 16.1172 63.0977 16.6211 64.2539 16.6211C65.082 16.6211 65.7422 16.3828 66.2344 15.9062C66.7344 15.4297 66.9844 14.7969 66.9844 14.0078V12.9297Z" fill="#F37A51"/>
<path d="M95.9414 19H91.3242L83.8711 6.03906H83.7656C83.9141 8.32812 83.9883 9.96094 83.9883 10.9375V19H80.7422V1.86719H85.3242L92.7656 14.6992H92.8477C92.7305 12.4727 92.6719 10.8984 92.6719 9.97656V1.86719H95.9414V19ZM102.832 12.4258C102.832 13.7227 103.043 14.7031 103.465 15.3672C103.895 16.0312 104.59 16.3633 105.551 16.3633C106.504 16.3633 107.188 16.0352 107.602 15.3789C108.023 14.7148 108.234 13.7305 108.234 12.4258C108.234 11.1289 108.023 10.1562 107.602 9.50781C107.18 8.85938 106.488 8.53516 105.527 8.53516C104.574 8.53516 103.887 8.85938 103.465 9.50781C103.043 10.1484 102.832 11.1211 102.832 12.4258ZM111.891 12.4258C111.891 14.5586 111.328 16.2266 110.203 17.4297C109.078 18.6328 107.512 19.2344 105.504 19.2344C104.246 19.2344 103.137 18.9609 102.176 18.4141C101.215 17.8594 100.477 17.0664 99.9609 16.0352C99.4453 15.0039 99.1875 13.8008 99.1875 12.4258C99.1875 10.2852 99.7461 8.62109 100.863 7.43359C101.98 6.24609 103.551 5.65234 105.574 5.65234C106.832 5.65234 107.941 5.92578 108.902 6.47266C109.863 7.01953 110.602 7.80469 111.117 8.82812C111.633 9.85156 111.891 11.0508 111.891 12.4258ZM120.363 16.3867C120.988 16.3867 121.738 16.25 122.613 15.9766V18.6367C121.723 19.0352 120.629 19.2344 119.332 19.2344C117.902 19.2344 116.859 18.875 116.203 18.1562C115.555 17.4297 115.23 16.3438 115.23 14.8984V8.58203H113.52V7.07031L115.488 5.875L116.52 3.10938H118.805V5.89844H122.473V8.58203H118.805V14.8984C118.805 15.4062 118.945 15.7812 119.227 16.0234C119.516 16.2656 119.895 16.3867 120.363 16.3867ZM133.594 19L132.902 17.2188H132.809C132.207 17.9766 131.586 18.5039 130.945 18.8008C130.312 19.0898 129.484 19.2344 128.461 19.2344C127.203 19.2344 126.211 18.875 125.484 18.1562C124.766 17.4375 124.406 16.4141 124.406 15.0859C124.406 13.6953 124.891 12.6719 125.859 12.0156C126.836 11.3516 128.305 10.9844 130.266 10.9141L132.539 10.8438V10.2695C132.539 8.94141 131.859 8.27734 130.5 8.27734C129.453 8.27734 128.223 8.59375 126.809 9.22656L125.625 6.8125C127.133 6.02344 128.805 5.62891 130.641 5.62891C132.398 5.62891 133.746 6.01172 134.684 6.77734C135.621 7.54297 136.09 8.70703 136.09 10.2695V19H133.594ZM132.539 12.9297L131.156 12.9766C130.117 13.0078 129.344 13.1953 128.836 13.5391C128.328 13.8828 128.074 14.4062 128.074 15.1094C128.074 16.1172 128.652 16.6211 129.809 16.6211C130.637 16.6211 131.297 16.3828 131.789 15.9062C132.289 15.4297 132.539 14.7969 132.539 14.0078V12.9297ZM147.094 5.65234C147.578 5.65234 147.98 5.6875 148.301 5.75781L148.031 9.10938C147.742 9.03125 147.391 8.99219 146.977 8.99219C145.836 8.99219 144.945 9.28516 144.305 9.87109C143.672 10.457 143.355 11.2773 143.355 12.332V19H139.781V5.89844H142.488L143.016 8.10156H143.191C143.598 7.36719 144.145 6.77734 144.832 6.33203C145.527 5.87891 146.281 5.65234 147.094 5.65234ZM150.527 2.51172C150.527 1.34766 151.176 0.765625 152.473 0.765625C153.77 0.765625 154.418 1.34766 154.418 2.51172C154.418 3.06641 154.254 3.5 153.926 3.8125C153.605 4.11719 153.121 4.26953 152.473 4.26953C151.176 4.26953 150.527 3.68359 150.527 2.51172ZM154.254 19H150.68V5.89844H154.254V19ZM167.156 15.1094C167.156 16.4531 166.688 17.4766 165.75 18.1797C164.82 18.8828 163.426 19.2344 161.566 19.2344C160.613 19.2344 159.801 19.168 159.129 19.0352C158.457 18.9102 157.828 18.7227 157.242 18.4727V15.5195C157.906 15.832 158.652 16.0938 159.48 16.3047C160.316 16.5156 161.051 16.6211 161.684 16.6211C162.98 16.6211 163.629 16.2461 163.629 15.4961C163.629 15.2148 163.543 14.9883 163.371 14.8164C163.199 14.6367 162.902 14.4375 162.48 14.2188C162.059 13.9922 161.496 13.7305 160.793 13.4336C159.785 13.0117 159.043 12.6211 158.566 12.2617C158.098 11.9023 157.754 11.4922 157.535 11.0312C157.324 10.5625 157.219 9.98828 157.219 9.30859C157.219 8.14453 157.668 7.24609 158.566 6.61328C159.473 5.97266 160.754 5.65234 162.41 5.65234C163.988 5.65234 165.523 5.99609 167.016 6.68359L165.938 9.26172C165.281 8.98047 164.668 8.75 164.098 8.57031C163.527 8.39062 162.945 8.30078 162.352 8.30078C161.297 8.30078 160.77 8.58594 160.77 9.15625C160.77 9.47656 160.938 9.75391 161.273 9.98828C161.617 10.2227 162.363 10.5703 163.512 11.0312C164.535 11.4453 165.285 11.832 165.762 12.1914C166.238 12.5508 166.59 12.9648 166.816 13.4336C167.043 13.9023 167.156 14.4609 167.156 15.1094Z" fill="#7C589F"/>
</svg>
